<svg style="position: absolute; width: 0; height: 0;" width="0" height="0" version="1.1" xmlns="http://www.w3.org/2000/svg" xmlns:xlink="http://www.w3.org/1999/xlink">
<defs>
<symbol id="icon-frame" viewBox="0 0 1024 1024">
<title>frame</title>
<path class="path1" d="M1024 704c0 35.328-28.672 64-64 64v69.888c37.184 13.248 64 48.384 64 90.112 0 52.992-43.008 96-96 96-41.76 0-76.896-26.816-90.112-64h-69.888c0 35.328-28.672 64-64 64s-64-28.672-64-64h-64c0 35.328-28.672 64-64 64s-64-28.672-64-64h-64c0 35.328-28.672 64-64 64s-64-28.672-64-64h-69.888c-13.216 37.184-48.384 64-90.112 64-53.024 0-96-43.008-96-96 0-41.76 26.784-76.864 64-90.112v-69.888c-35.328 0-64-28.672-64-64s28.672-64 64-64v-64c-35.328 0-64-28.672-64-64s28.672-64 64-64v-64c-35.328 0-64-28.672-64-64s28.672-64 64-64v-69.888c-37.216-13.216-64-48.384-64-90.112 0-53.024 42.976-96 96-96 41.728 0 76.896 26.784 90.112 64h69.888c0-35.328 28.672-64 64-64s64 28.672 64 64h64c0-35.328 28.672-64 64-64s64 28.672 64 64h64c0-35.328 28.672-64 64-64s64 28.672 64 64h69.888c13.216-37.216 48.352-64 90.112-64 52.992 0 96 42.976 96 96 0 41.728-26.816 76.896-64 90.112v69.888c35.328 0 64 28.672 64 64s-28.672 64-64 64v64c35.328 0 64 28.672 64 64s-28.672 64-64 64v64c35.328 0 64 28.672 64 64zM832 224c0-17.664-14.304-32-32-32h-576c-17.664 0-32 14.336-32 32v576c0 17.696 14.336 32 32 32h576c17.696 0 32-14.304 32-32v-576z"></path>
</symbol>
<symbol id="icon-stats" viewBox="0 0 1024 1024">
<title>stats</title>
<path class="path1" d="M960 0h-896c-35.328 0-64 28.672-64 64v640c0 35.328 28.672 64 64 64h256l-128 256h32l230.4-256h115.2l230.4 256h32l-128-256h256c35.328 0 64-28.672 64-64v-640c0-35.328-28.672-64-64-64zM960 672c0 17.696-14.304 32-32 32h-832c-17.696 0-32-14.304-32-32v-576c0-17.696 14.304-32 32-32h832c17.696 0 32 14.304 32 32v576zM668.096 500.192l-144.672-372.128-158.016 297.28-88.192-90.72-149.216 92.992 42.112 24.256 95.616-59.584 115.36 118.784 133.6-251.296 147.712 380.128 125.984-265.216 51.328 109.248 56.288-9.44-107.328-228.224-120.576 253.92z"></path>
</symbol>
<symbol id="icon-home" viewBox="0 0 1024 1024">
<title>home</title>
<path class="path1" d="M1024 590.444l-512-397.426-512 397.428v-162.038l512-397.426 512 397.428zM896 576v384h-256v-256h-256v256h-256v-384l384-288z"></path>
</symbol>
<symbol id="icon-switch" viewBox="0 0 1024 1024">
<title>switch</title>
<path class="path1" d="M640 146.588v135.958c36.206 15.804 69.5 38.408 98.274 67.18 60.442 60.44 93.726 140.8 93.726 226.274s-33.286 165.834-93.726 226.274c-60.44 60.44-140.798 93.726-226.274 93.726s-165.834-33.286-226.274-93.726c-60.44-60.44-93.726-140.8-93.726-226.274s33.286-165.834 93.726-226.274c28.774-28.774 62.068-51.378 98.274-67.182v-135.956c-185.048 55.080-320 226.472-320 429.412 0 247.424 200.578 448 448 448 247.424 0 448-200.576 448-448 0-202.94-134.95-374.332-320-429.412zM448 0h128v512h-128z"></path>
</symbol>
<symbol id="icon-happy" viewBox="0 0 1024 1024">
<title>happy</title>
<path class="path1" d="M512 1024c282.77 0 512-229.23 512-512s-229.23-512-512-512-512 229.23-512 512 229.23 512 512 512zM512 96c229.75 0 416 186.25 416 416s-186.25 416-416 416-416-186.25-416-416 186.25-416 416-416zM512 598.76c115.95 0 226.23-30.806 320-84.92-14.574 178.438-153.128 318.16-320 318.16-166.868 0-305.422-139.872-320-318.304 93.77 54.112 204.050 85.064 320 85.064zM256 352c0-53.019 28.654-96 64-96s64 42.981 64 96c0 53.019-28.654 96-64 96s-64-42.981-64-96zM640 352c0-53.019 28.654-96 64-96s64 42.981 64 96c0 53.019-28.654 96-64 96s-64-42.981-64-96z"></path>
</symbol>
<symbol id="icon-wink" viewBox="0 0 1024 1024">
<title>wink</title>
<path class="path1" d="M512 1024c282.77 0 512-229.23 512-512s-229.23-512-512-512-512 229.23-512 512 229.23 512 512 512zM512 96c229.75 0 416 186.25 416 416s-186.25 416-416 416-416-186.25-416-416 186.25-416 416-416zM542.74 711.028c140.248-27.706 249.11-91.542 288.454-176.594-21.654 167.956-161.518 297.566-330.85 297.566-119.242 0-223.858-64.282-282.892-160.948 70.41 55.058 194.534 65.808 325.288 39.976zM640 352c0-53.019 28.654-96 64-96s64 42.981 64 96c0 53.019-28.654 96-64 96s-64-42.981-64-96zM352 371.5c-41.796 0-77.334 15.656-90.516 37.5-3.54-5.866-5.484-32.174-5.484-38.75 0-31.066 42.98-56.25 96-56.25s96 25.184 96 56.25c0 6.576-1.944 32.884-5.484 38.75-13.182-21.844-48.72-37.5-90.516-37.5z"></path>
</symbol>
<symbol id="icon-wink2" viewBox="0 0 1024 1024">
<title>wink2</title>
<path class="path1" d="M512 0c-282.77 0-512 229.228-512 512 0 282.77 229.228 512 512 512 282.77 0 512-229.23 512-512 0-282.772-229.23-512-512-512zM704 256c35.346 0 64 42.98 64 96s-28.654 96-64 96-64-42.98-64-96 28.654-96 64-96zM352 312.062c59.646 0 102 22.332 102 57.282 0 7.398 3.812 42.994-0.17 49.594-14.828-24.576-54.81-42.188-101.83-42.188s-87.002 17.612-101.83 42.188c-3.982-6.6-0.17-42.196-0.17-49.594 0-34.95 42.354-57.282 102-57.282zM500.344 832c-119.242 0-223.858-64.28-282.892-160.952 70.41 55.060 194.534 65.81 325.288 39.978 140.248-27.706 249.11-91.542 288.454-176.594-21.654 167.96-161.518 297.568-330.85 297.568z"></path>
</symbol>
<symbol id="icon-shocked" viewBox="0 0 1024 1024">
<title>shocked</title>
<path class="path1" d="M512 1024c282.77 0 512-229.23 512-512s-229.23-512-512-512-512 229.23-512 512 229.23 512 512 512zM512 96c229.75 0 416 186.25 416 416s-186.25 416-416 416-416-186.25-416-416 186.25-416 416-416zM384 704c0-70.692 57.308-128 128-128s128 57.308 128 128c0 70.692-57.308 128-128 128s-128-57.308-128-128zM640 352c0-53.019 28.654-96 64-96s64 42.981 64 96c0 53.019-28.654 96-64 96s-64-42.981-64-96zM256 352c0-53.019 28.654-96 64-96s64 42.981 64 96c0 53.019-28.654 96-64 96s-64-42.981-64-96z"></path>
</symbol>
</defs>
</svg>
